
  <svg
    width="1000"
    height="1000"
    viewBox="0 0 1000 1000"
    xmlns="http://www.w3.org/2000/svg"
  >
    <defs>
      
      
      <linearGradient id="linearGradientId" gradientTransform="rotate(-45 0.5 0.5)">
      <stop offset="0%"  stop-color="#d0ff8f" />
			<stop offset="100%"  stop-color="#11bd3d" />
    </linearGradient>
      
      
      
      
      <clipPath id="shape">
        <path fill="currentColor" d="M861.5,660Q881,820,721.5,837Q562,854,452,814Q342,774,290.5,684.5Q239,595,207.5,488.5Q176,382,264,313Q352,244,460.5,176Q569,108,660.5,198Q752,288,797,394Q842,500,861.5,660Z"></path>
      </clipPath>
    </defs>
  
    

    <g  clip-path="url(#shape)">
      <path fill="url(#linearGradientId)" d="M861.5,660Q881,820,721.5,837Q562,854,452,814Q342,774,290.5,684.5Q239,595,207.5,488.5Q176,382,264,313Q352,244,460.5,176Q569,108,660.5,198Q752,288,797,394Q842,500,861.5,660Z" />
    </g>

    
  
  </svg>