
  <svg
    width="1000"
    height="1000"
    viewBox="0 0 1000 1000"
    xmlns="http://www.w3.org/2000/svg"
  >
    <defs>
      
      
      
      
      
      
      
      <clipPath id="shape">
        <path fill="currentColor" d="M836.5,643.5Q787,787,643.5,890.5Q500,994,382,865Q264,736,144.5,618Q25,500,122,359.5Q219,219,359.5,197Q500,175,612.5,225Q725,275,805.5,387.5Q886,500,836.5,643.5Z"></path>
      </clipPath>
    </defs>
  
    

    <g  clip-path="url(#shape)">
      <path fill="none" stroke="#FAB21D" stroke-width="20" d="M836.5,643.5Q787,787,643.5,890.5Q500,994,382,865Q264,736,144.5,618Q25,500,122,359.5Q219,219,359.5,197Q500,175,612.5,225Q725,275,805.5,387.5Q886,500,836.5,643.5Z" />
    </g>

    
  
  </svg>