
  <svg
    width="1000"
    height="1000"
    viewBox="0 0 1000 1000"
    xmlns="http://www.w3.org/2000/svg"
  >
    <defs>
      <filter id="grain" x="-50vw" y="-50vh" width="100vw" height="100vh">
    <feFlood flood-color="#ffffff" result="neutral-gray" />
  
    <feTurbulence
      in="neutral-gray"
      type="fractalNoise"
      baseFrequency="2.5"
      numOctaves="100"
      stitchTiles="stitch"
      result="noise"
    />
  
    <feColorMatrix
      in="noise"
      type="saturate"
      values="0"
      result="destaturatedNoise"
    ></feColorMatrix>
  
    <feComponentTransfer in="desaturatedNoise" result="theNoise">
      <feFuncA type="table" tableValues="0 0 0.3 0"></feFuncA>
    </feComponentTransfer>
  
    <feBlend
      in="SourceGraphic"
      in2="theNoise"
      mode="soft-light"
      result="noisy-image"
    />
  </filter>
      
      <linearGradient id="linearGradientId" gradientTransform="rotate(135 0.5 0.5)">
      <stop offset="0%"  stop-color="#fdb60a" />
			<stop offset="100%"  stop-color="#fed759" />
    </linearGradient>
      
      
      
      
      <clipPath id="shape">
        <path fill="currentColor" d="M787.5,586Q706,672,631,745Q556,818,441,810Q326,802,268.5,703.5Q211,605,237,509.5Q263,414,288.5,296Q314,178,440.5,150.5Q567,123,689,181Q811,239,840,369.5Q869,500,787.5,586Z"></path>
      </clipPath>
    </defs>
  
    

    <g filter="url(#grain)" clip-path="url(#shape)">
      <path fill="url(#linearGradientId)" d="M787.5,586Q706,672,631,745Q556,818,441,810Q326,802,268.5,703.5Q211,605,237,509.5Q263,414,288.5,296Q314,178,440.5,150.5Q567,123,689,181Q811,239,840,369.5Q869,500,787.5,586Z" />
    </g>

    
  
  </svg>